{
  "accessors": [
    {
      "bufferView": 2,
      "componentType": 5126,
      "count": 180,
      "max": [
        0.32315999269485474,
        0.0,
        0.5767689943313599
      ],
      "min": [
        0.2779020071029663,
        -0.12146399915218353,
        0.41804298758506775
      ],
      "type": "VEC3"
    },
    {
      "bufferView": 2,
      "byteOffset": 2160,
      "componentType": 5126,
      "count": 180,
      "max": [
        0.9997105002403259,
        0.999164342880249,
        0.9471494555473328
      ],
      "min": [
        -0.9974521398544312,
        -0.9990456104278564,
        -0.9830136299133301
      ],
      "type": "VEC3"
    },
    {
      "bufferView": 1,
      "componentType": 5126,
      "count": 180,
      "max": [
        0.6137700080871582,
        0.9941409826278687
      ],
      "min": [
        0.5366209745407104,
        0.5063480138778687
      ],
      "type": "VEC2"
    },
    {
      "bufferView": 0,
      "componentType": 5125,
      "count": 516,
      "type": "SCALAR"
    },
    {
      "bufferView": 2,
      "byteOffset": 4320,
      "componentType": 5126,
      "count": 272,
      "max": [
        0.33469700813293457,
        -0.026336999610066414,
        0.4186829924583435
      ],
      "min": [
        0.27542999386787415,
        -0.13663099706172943,
        0.3718380033969879
      ],
      "type": "VEC3"
    },
    {
      "bufferView": 2,
      "byteOffset": 7584,
      "componentType": 5126,
      "count": 272,
      "max": [
        0.9960635900497437,
        0.9813013672828674,
        0.993648886680603
      ],
      "min": [
        -0.9985488653182983,
        -0.9957234859466553,
        -0.995083212852478
      ],
      "type": "VEC3"
    },
    {
      "bufferView": 1,
      "byteOffset": 1440,
      "componentType": 5126,
      "count": 272,
      "max": [
        0.9956049919128418,
        0.9980469942092896
      ],
      "min": [
        0.6450200080871582,
        0.7949219942092896
      ],
      "type": "VEC2"
    },
    {
      "bufferView": 0,
      "byteOffset": 2064,
      "componentType": 5125,
      "count": 1080,
      "type": "SCALAR"
    },
    {
      "bufferView": 2,
      "byteOffset": 10848,
      "componentType": 5126,
      "count": 1907,
      "max": [
        0.5607470273971558,
        -0.007110999897122383,
        0.6543170213699341
      ],
      "min": [
        0.14462700486183167,
        -0.13370199501514435,
        0.3947870135307312
      ],
      "type": "VEC3"
    },
    {
      "bufferView": 2,
      "byteOffset": 33732,
      "componentType": 5126,
      "count": 1907,
      "max": [
        0.9933203458786011,
        0.999065101146698,
        1.0
      ],
      "min": [
        -0.9915241003036499,
        -0.9999863505363464,
        -1.0
      ],
      "type": "VEC3"
    },
    {
      "bufferView": 1,
      "byteOffset": 3616,
      "componentType": 5126,
      "count": 1907,
      "max": [
        0.9912109971046448,
        0.9990230202674866
      ],
      "min": [
        0.0009190000128000975,
        0.3833009898662567
      ],
      "type": "VEC2"
    },
    {
      "bufferView": 0,
      "byteOffset": 6384,
      "componentType": 5125,
      "count": 8211,
      "type": "SCALAR"
    },
    {
      "bufferView": 2,
      "byteOffset": 56616,
      "componentType": 5126,
      "count": 1904,
      "max": [
        0.42243701219558716,
        -0.031129000708460808,
        0.6470530033111572
      ],
      "min": [
        0.28290700912475586,
        -0.12683500349521637,
        0.13287800550460815
      ],
      "type": "VEC3"
    },
    {
      "bufferView": 2,
      "byteOffset": 79464,
      "componentType": 5126,
      "count": 1904,
      "max": [
        0.9997366666793823,
        0.9970679879188538,
        0.9902066588401794
      ],
      "min": [
        -0.999638020992279,
        -0.9999963641166687,
        -0.9976764917373657
      ],
      "type": "VEC3"
    },
    {
      "bufferView": 1,
      "byteOffset": 18872,
      "componentType": 5126,
      "count": 1904,
      "max": [
        0.9907230138778687,
        0.7475590109825134
      ],
      "min": [
        0.5,
        0.0031469999812543392
      ],
      "type": "VEC2"
    },
    {
      "bufferView": 0,
      "byteOffset": 39228,
      "componentType": 5125,
      "count": 9522,
      "type": "SCALAR"
    },
    {
      "bufferView": 2,
      "byteOffset": 102312,
      "componentType": 5126,
      "count": 1095,
      "max": [
        0.4900360107421875,
        -0.0091559998691082,
        0.5998110175132751
      ],
      "min": [
        0.2334969937801361,
        -0.13153499364852905,
        0.45756399631500244
      ],
      "type": "VEC3"
    },
    {
      "bufferView": 2,
      "byteOffset": 115452,
      "componentType": 5126,
      "count": 1095,
      "max": [
        0.9873466491699219,
        0.9986848831176758,
        0.9982894659042358
      ],
      "min": [
        -0.9874554872512817,
        -0.9998933672904968,
        -0.9998641014099121
      ],
      "type": "VEC3"
    },
    {
      "bufferView": 1,
      "byteOffset": 34104,
      "componentType": 5126,
      "count": 1095,
      "max": [
        0.8496090173721313,
        0.7431640028953552
      ],
      "min": [
        0.002833999926224351,
        0.0035149999894201756
      ],
      "type": "VEC2"
    },
    {
      "bufferView": 0,
      "byteOffset": 77316,
      "componentType": 5125,
      "count": 5517,
      "type": "SCALAR"
    },
    {
      "bufferView": 2,
      "byteOffset": 128592,
      "componentType": 5126,
      "count": 1336,
      "max": [
        0.38367900252342224,
        -0.07409899681806564,
        0.6145210266113281
      ],
      "min": [
        0.321696013212204,
        -0.1282390058040619,
        0.5693230032920837
      ],
      "type": "VEC3"
    },
    {
      "bufferView": 2,
      "byteOffset": 144624,
      "componentType": 5126,
      "count": 1336,
      "max": [
        0.9819654822349548,
        0.991151750087738,
        0.9968876242637634
      ],
      "min": [
        -0.9847331047058105,
        -0.9991592168807983,
        -0.9991981387138367
      ],
      "type": "VEC3"
    },
    {
      "bufferView": 1,
      "byteOffset": 42864,
      "componentType": 5126,
      "count": 1336,
      "max": [
        0.9970700144767761,
        0.9985349774360657
      ],
      "min": [
        0.5004879832267761,
        0.7568359971046448
      ],
      "type": "VEC2"
    },
    {
      "bufferView": 0,
      "byteOffset": 99384,
      "componentType": 5125,
      "count": 6630,
      "type": "SCALAR"
    },
    {
      "bufferView": 2,
      "byteOffset": 160656,
      "componentType": 5126,
      "count": 1458,
      "max": [
        0.4299449920654297,
        0.0,
        0.5994139909744263
      ],
      "min": [
        0.2936190068721771,
        -0.13663099706172943,
        0.3718380033969879
      ],
      "type": "VEC3"
    },
    {
      "bufferView": 2,
      "byteOffset": 178152,
      "componentType": 5126,
      "count": 1458,
      "max": [
        0.9988136291503906,
        0.9999746680259705,
        0.9999991059303284
      ],
      "min": [
        -0.9995562434196472,
        -0.9999914765357971,
        -0.9998831152915955
      ],
      "type": "VEC3"
    },
    {
      "bufferView": 1,
      "byteOffset": 53552,
      "componentType": 5126,
      "count": 1458,
      "max": [
        0.9956049919128418,
        0.9980469942092896
      ],
      "min": [
        0.031738001853227615,
        0.5024409890174866
      ],
      "type": "VEC2"
    },
    {
      "bufferView": 0,
      "byteOffset": 125904,
      "componentType": 5125,
      "count": 5424,
      "type": "SCALAR"
    },
    {
      "bufferView": 2,
      "byteOffset": 195648,
      "componentType": 5126,
      "count": 1524,
      "max": [
        0.35761600732803345,
        -0.024994999170303345,
        0.5615100264549255
      ],
      "min": [
        0.0,
        -0.15063899755477905,
        0.007019000127911568
      ],
      "type": "VEC3"
    },
    {
      "bufferView": 2,
      "byteOffset": 213936,
      "componentType": 5126,
      "count": 1524,
      "max": [
        0.9993224740028381,
        1.0,
        0.9999315142631531
      ],
      "min": [
        -0.998116672039032,
        -1.0,
        -1.0
      ],
      "type": "VEC3"
    },
    {
      "bufferView": 1,
      "byteOffset": 65216,
      "componentType": 5126,
      "count": 1524,
      "max": [
        0.9829099774360657,
        0.4978030025959015
      ],
      "min": [
        0.002440999960526824,
        0.002133999951183796
      ],
      "type": "VEC2"
    },
    {
      "bufferView": 0,
      "byteOffset": 147600,
      "componentType": 5125,
      "count": 7329,
      "type": "SCALAR"
    },
    {
      "bufferView": 2,
      "byteOffset": 232224,
      "componentType": 5126,
      "count": 1524,
      "max": [
        0.705374002456665,
        -0.024994999170303345,
        0.5615100264549255
      ],
      "min": [
        0.3477579951286316,
        -0.15063899755477905,
        0.006988999899476767
      ],
      "type": "VEC3"
    },
    {
      "bufferView": 2,
      "byteOffset": 250512,
      "componentType": 5126,
      "count": 1524,
      "max": [
        0.9981226325035095,
        1.0,
        0.9999314546585083
      ],
      "min": [
        -0.9993226528167725,
        -1.0,
        -1.0
      ],
      "type": "VEC3"
    },
    {
      "bufferView": 1,
      "byteOffset": 77408,
      "componentType": 5126,
      "count": 1524,
      "max": [
        0.9829099774360657,
        0.4978030025959015
      ],
      "min": [
        0.002440999960526824,
        0.002133999951183796
      ],
      "type": "VEC2"
    },
    {
      "bufferView": 0,
      "byteOffset": 176916,
      "componentType": 5125,
      "count": 7329,
      "type": "SCALAR"
    }
  ],
  "asset": {
    "extras": {
      "author": "iqbalmulyawan (https://sketchfab.com/Iqbal.Mulyawan.Putera)",
      "license": "CC-BY-4.0 (http://creativecommons.org/licenses/by/4.0/)",
      "source": "https://sketchfab.com/3d-models/captain-america-d4898ea3aac3474fa0661de3ade9b7c6",
      "title": "Captain America"
    },
    "generator": "Sketchfab-12.68.0",
    "version": "2.0"
  },
  "bufferViews": [
    {
      "buffer": 0,
      "byteLength": 206232,
      "name": "floatBufferViews",
      "target": 34963
    },
    {
      "buffer": 0,
      "byteLength": 89600,
      "byteOffset": 206232,
      "byteStride": 8,
      "name": "floatBufferViews",
      "target": 34962
    },
    {
      "buffer": 0,
      "byteLength": 268800,
      "byteOffset": 295832,
      "byteStride": 12,
      "name": "floatBufferViews",
      "target": 34962
    }
  ],
  "buffers": [
    {
      "byteLength": 564632,
      "uri": "scene.bin"
    }
  ],
  "images": [
    {
      "uri": "textures/Material__25_baseColor.jpeg"
    },
    {
      "uri": "textures/Material__26_baseColor.jpeg"
    }
  ],
  "materials": [
    {
      "doubleSided": true,
      "emissiveTexture": {
        "index": 0
      },
      "name": "Material__25",
      "pbrMetallicRoughness": {
        "baseColorTexture": {
          "index": 0
        },
        "metallicFactor": 0.0,
        "roughnessFactor": 0.6
      }
    },
    {
      "doubleSided": true,
      "emissiveTexture": {
        "index": 1
      },
      "name": "Material__26",
      "pbrMetallicRoughness": {
        "baseColorTexture": {
          "index": 1
        },
        "metallicFactor": 0.0,
        "roughnessFactor": 0.6
      }
    },
    {
      "doubleSided": true,
      "emissiveTexture": {
        "index": 1
      },
      "name": "Material__27",
      "pbrMetallicRoughness": {
        "baseColorTexture": {
          "index": 1
        },
        "metallicFactor": 0.0,
        "roughnessFactor": 0.6
      }
    },
    {
      "doubleSided": true,
      "emissiveTexture": {
        "index": 1
      },
      "name": "Material__28",
      "pbrMetallicRoughness": {
        "baseColorTexture": {
          "index": 1
        },
        "metallicFactor": 0.0,
        "roughnessFactor": 0.6
      }
    }
  ],
  "meshes": [
    {
      "name": "Object_0",
      "primitives": [
        {
          "attributes": {
            "NORMAL": 1,
            "POSITION": 0,
            "TEXCOORD_0": 2
          },
          "indices": 3,
          "material": 2,
          "mode": 4
        }
      ]
    },
    {
      "name": "Object_1",
      "primitives": [
        {
          "attributes": {
            "NORMAL": 5,
            "POSITION": 4,
            "TEXCOORD_0": 6
          },
          "indices": 7,
          "material": 3,
          "mode": 4
        }
      ]
    },
    {
      "name": "Object_2",
      "primitives": [
        {
          "attributes": {
            "NORMAL": 9,
            "POSITION": 8,
            "TEXCOORD_0": 10
          },
          "indices": 11,
          "material": 0,
          "mode": 4
        }
      ]
    },
    {
      "name": "Object_3",
      "primitives": [
        {
          "attributes": {
            "NORMAL": 13,
            "POSITION": 12,
            "TEXCOORD_0": 14
          },
          "indices": 15,
          "material": 0,
          "mode": 4
        }
      ]
    },
    {
      "name": "Object_4",
      "primitives": [
        {
          "attributes": {
            "NORMAL": 17,
            "POSITION": 16,
            "TEXCOORD_0": 18
          },
          "indices": 19,
          "material": 0,
          "mode": 4
        }
      ]
    },
    {
      "name": "Object_5",
      "primitives": [
        {
          "attributes": {
            "NORMAL": 21,
            "POSITION": 20,
            "TEXCOORD_0": 22
          },
          "indices": 23,
          "material": 0,
          "mode": 4
        }
      ]
    },
    {
      "name": "Object_6",
      "primitives": [
        {
          "attributes": {
            "NORMAL": 25,
            "POSITION": 24,
            "TEXCOORD_0": 26
          },
          "indices": 27,
          "material": 1,
          "mode": 4
        }
      ]
    },
    {
      "name": "Object_7",
      "primitives": [
        {
          "attributes": {
            "NORMAL": 29,
            "POSITION": 28,
            "TEXCOORD_0": 30
          },
          "indices": 31,
          "material": 1,
          "mode": 4
        }
      ]
    },
    {
      "name": "Object_8",
      "primitives": [
        {
          "attributes": {
            "NORMAL": 33,
            "POSITION": 32,
            "TEXCOORD_0": 34
          },
          "indices": 35,
          "material": 1,
          "mode": 4
        }
      ]
    }
  ],
  "nodes": [
    {
      "children": [
        1
      ],
      "matrix": [
        1.0,
        0.0,
        0.0,
        0.0,
        0.0,
        2.220446049250313e-16,
        -1.0,
        0.0,
        0.0,
        1.0,
        2.220446049250313e-16,
        0.0,
        0.0,
        0.0,
        0.0,
        1.0
      ],
      "name": "Sketchfab_model"
    },
    {
      "children": [
        2,
        3,
        4,
        5,
        6,
        7,
        8,
        9,
        10
      ],
      "name": "CapAmerica.obj.cleaner.materialmerger.gles"
    },
    {
      "mesh": 0,
      "name": "Object_2"
    },
    {
      "mesh": 1,
      "name": "Object_3"
    },
    {
      "mesh": 2,
      "name": "Object_4"
    },
    {
      "mesh": 3,
      "name": "Object_5"
    },
    {
      "mesh": 4,
      "name": "Object_6"
    },
    {
      "mesh": 5,
      "name": "Object_7"
    },
    {
      "mesh": 6,
      "name": "Object_8"
    },
    {
      "mesh": 7,
      "name": "Object_9"
    },
    {
      "mesh": 8,
      "name": "Object_10"
    }
  ],
  "samplers": [
    {
      "magFilter": 9729,
      "minFilter": 9987,
      "wrapS": 10497,
      "wrapT": 10497
    }
  ],
  "scene": 0,
  "scenes": [
    {
      "name": "Sketchfab_Scene",
      "nodes": [
        0
      ]
    }
  ],
  "textures": [
    {
      "sampler": 0,
      "source": 0
    },
    {
      "sampler": 0,
      "source": 1
    }
  ]
}
